<svg width="24" height="16" viewBox="0 0 24 16" fill="none" xmlns="http://www.w3.org/2000/svg">
<path d="M0 7.99999C0 8.46568 0.377451 8.84313 0.843137 8.84313H21.1471L15.8284 14.1569C15.6667 14.3186 15.5833 14.5343 15.5833 14.75C15.5833 14.9657 15.6667 15.1814 15.8284 15.3431C16.1569 15.6716 16.6912 15.6716 17.0196 15.3431L23.7647 8.59313C24.0784 8.2794 24.0784 7.72058 23.7647 7.40195L17.0147 0.656861C16.6863 0.32843 16.152 0.32843 15.8235 0.656861C15.4951 0.985292 15.4951 1.51961 15.8235 1.84804L21.1373 7.16176H0.838235C0.372549 7.15686 0 7.53431 0 7.99999Z" fill="black" fill-opacity="0.75"/>
</svg>
