<svg width="152" height="152" viewBox="0 0 152 152" fill="none" xmlns="http://www.w3.org/2000/svg">
<path d="M60.1449 100.91C60.1365 100.624 59.6889 100.616 59.6942 100.91C59.7115 101.566 59.5905 102.218 59.3393 102.824C59.3065 102.793 59.2667 102.769 59.2231 102.756C59.1795 102.743 59.1333 102.74 59.0885 102.748C58.3141 102.994 57.6397 103.483 57.1657 104.143C56.8639 104.568 56.457 104.906 55.9849 105.127C55.5127 105.347 54.9915 105.44 54.4722 105.398C53.4568 105.311 52.4343 105.432 51.4672 105.753C50.5408 106.169 49.7785 106.983 48.7563 107.148C47.6163 107.338 46.4702 106.819 45.3188 107C44.273 107.259 43.2895 107.724 42.4262 108.368C40.8226 109.356 40.467 109.091 38.7281 108.853C35.8059 108.443 35.3134 110.683 32.6055 110.455C31.6008 110.379 30.4486 110.227 29.6955 111.035C28.8473 110.196 28.883 107.752 28.8466 106.921C28.8382 106.783 28.6125 106.74 28.5958 106.887C28.2576 109.156 28.7166 111.858 31.2193 112.612C33.4294 113.282 36.9869 112.522 39.3779 112.014C43.776 111.089 51.6899 108.923 55.6069 106.998C57.9622 105.847 60.227 103.759 60.1449 100.91ZM45.3614 96.2853C44.7824 96.9318 44.372 97.7114 44.1666 98.5546C45.0156 98.8054 45.8812 99.1178 46.756 99.3686C47.0614 97.9652 47.8303 96.7054 48.9387 95.792H48.9296C48.296 95.6002 47.6924 95.3203 47.1367 94.9606C46.4639 95.2816 45.8607 95.7317 45.3614 96.2853Z" fill="#191919"/>
<path d="M30.3711 106.955C32.3585 107.415 33.953 106.469 37.4551 106.375C39.9836 106.323 42.5213 106.617 45.0498 106.375C47.5783 106.133 49.9693 105.223 52.3595 104.461C54.3423 103.829 56.5334 103.309 58.1879 101.975C60.3805 100.211 60.2103 97.8774 58.5428 97.16C57.0988 96.552 55.1806 97.084 52.9051 97.2208C52.2819 96.2419 50.4785 96.1256 49.5102 95.9288C49.4103 95.9881 49.3148 96.0547 49.2245 96.1279C48.1895 96.9932 47.4482 98.158 47.1025 99.462C48.5631 99.9583 50.1527 99.9184 51.5865 99.3495C52.2356 99.0554 53.1103 98.3448 53.0495 97.6175C54.4705 97.3987 55.9075 97.3003 57.3451 97.3234C59.8941 97.5179 59.9899 99.845 57.9949 101.558C56.4969 102.831 54.4525 103.325 52.6255 103.905C50.484 104.691 48.2884 105.322 46.056 105.792C43.785 106.048 41.4951 106.091 39.216 105.922C37.0545 105.826 34.89 106.024 32.7819 106.511C29.8087 106.985 28.4955 105.801 28.2089 103.965C28.1139 103.041 28.1139 102.109 28.2089 101.185C28.2697 100.189 28.5988 98.9505 29.8893 99.3921C30.9199 99.747 31.4648 100.836 32.4786 101.254C32.8865 101.421 33.3286 101.487 33.7674 101.446C34.2062 101.405 34.6286 101.259 34.9988 101.02C35.69 100.44 36.2657 99.7352 36.6959 98.9422C37.2331 98.168 38.0133 97.5951 38.9128 97.3142C39.4535 97.7341 40.1297 97.9405 40.8128 97.8941C41.0139 96.7706 41.5118 95.7214 42.2547 94.8549C42.9977 93.9885 43.9587 93.3365 45.0384 92.9663C44.4658 92.1708 43.6165 91.6181 42.6573 91.4166C42.0517 91.3528 41.4398 91.4412 40.8772 91.6741C40.3146 91.9069 39.819 92.2766 39.4357 92.7497C39.0038 93.2997 38.7286 93.9561 38.6392 94.6497C38.6004 94.6836 38.5737 94.7292 38.5632 94.7796C38.3426 95.5152 38.3823 96.3043 38.6757 97.014C36.6009 97.6334 36.2999 99.0942 35.3066 100.192C34.9009 100.661 34.3257 100.95 33.7071 100.996C33.0886 101.041 32.4773 100.84 32.0074 100.435C31.2543 99.8268 30.6478 99.006 29.6347 98.8586C29.3283 98.7906 29.0078 98.8301 28.727 98.9704C28.4462 99.1107 28.2223 99.3433 28.0927 99.6292C28.0346 99.5191 27.9516 99.4241 27.8502 99.3518C27.0902 98.7734 25.9761 99.8557 26.4305 100.867C26.5544 101.108 26.7374 101.314 26.9625 101.465C27.257 101.707 27.5011 102.004 27.6807 102.34C27.576 103.431 27.7801 104.529 28.2697 105.509C28.5069 105.877 28.8148 106.195 29.1755 106.443C29.5362 106.691 29.9426 106.865 30.3711 106.955ZM27.1031 100.901C27.0161 100.809 26.9487 100.7 26.9052 100.581C26.8617 100.462 26.8429 100.336 26.8501 100.209C26.8666 100.091 26.9193 99.9803 27.0009 99.893C27.0825 99.8057 27.1891 99.7457 27.3061 99.7212C27.7286 99.6862 27.7575 100.262 27.7963 100.495C27.7405 100.789 27.7059 101.087 27.6929 101.386C27.5044 101.213 27.2711 101.056 27.1062 100.901H27.1031Z" fill="#191919"/>
<path d="M41.1966 97.9481C42.0562 98.0498 42.9072 98.2149 43.7426 98.4421C43.9399 97.5745 44.3473 96.7686 44.9289 96.0953C45.4294 95.5155 46.0309 95.0314 46.7043 94.6665C46.2191 94.2958 45.7799 93.8685 45.3963 93.3935C44.3518 93.7056 43.4106 94.2932 42.6716 95.0947C41.9326 95.8961 41.4231 96.8818 41.1966 97.9481ZM101.764 93.7917C101.696 93.5052 101.262 93.6268 101.332 93.9125C101.481 94.5495 101.493 95.211 101.366 95.8528C101.323 95.8307 101.277 95.8177 101.229 95.8147C101.182 95.8116 101.134 95.8187 101.089 95.8353C100.364 96.2503 99.7933 96.8882 99.4604 97.654C99.2446 98.1223 98.9108 98.5265 98.4918 98.8271C98.0729 99.1276 97.583 99.3142 97.0702 99.3686C96.0681 99.4848 95.1013 99.8088 94.2316 100.32C93.3652 100.952 92.7595 101.956 91.6856 102.277C90.5943 102.606 89.4163 102.364 88.3416 102.814C87.3991 103.295 86.5559 103.95 85.8564 104.745C84.6123 105.94 84.0689 105.809 82.4874 105.897C80.3107 106.023 79.5636 107.31 78.4951 108.062C77.9578 108.439 77.3302 108.666 76.6764 108.72C75.6808 108.833 74.5545 108.948 73.983 109.872C73.9655 109.863 73.9571 109.846 73.9396 109.838C72.8756 108.833 72.6583 107.352 72.3201 106.009C72.3109 105.981 72.2918 105.956 72.2662 105.94C72.2405 105.924 72.21 105.917 72.1799 105.921C72.1499 105.925 72.1223 105.94 72.1021 105.963C72.0818 105.985 72.0702 106.014 72.0693 106.044C72.1992 108.382 73.2382 110.928 75.8799 111.128C78.1356 111.301 81.3443 109.9 83.6319 108.902C87.6888 107.14 94.997 103.46 98.5021 100.744C100.606 99.0912 102.43 96.5961 101.764 93.7917ZM82.612 94.7098C83.4761 94.6372 84.3443 94.6283 85.2097 94.6832C85.2311 93.7712 85.4781 92.8787 85.9286 92.0855C86.302 91.4454 86.7789 90.8717 87.34 90.3877C86.7891 90.1201 86.2718 89.7885 85.7987 89.3997C84.842 89.9198 84.0419 90.6866 83.4815 91.6204C82.9212 92.5541 82.6209 93.6208 82.612 94.7098Z" fill="#191919"/>
<path d="M74.3387 105.69C76.2539 105.53 77.2213 104.46 81.016 103.629C83.3978 103.118 85.8397 102.884 88.1691 102.157C90.4489 101.309 92.6344 100.226 94.6907 98.9269C96.5785 97.8629 98.7521 96.8833 100.129 95.1421C101.838 92.9761 101.168 90.8382 99.5213 90.4575C98.3957 90.1884 97.1744 90.6216 96.118 90.9598C93.632 91.7586 93.99 91.653 93.9011 91.6089C93.157 90.8648 91.1954 91.0822 90.3154 91.0723C89.337 92.1649 88.7625 93.5596 88.6874 95.0243C90.1604 95.2009 91.6498 94.8744 92.9138 94.0979C93.5112 93.6905 94.4118 92.7983 94.1519 92.0193C95.4165 91.6469 96.6462 91.1612 97.945 90.9104C100.732 90.3784 101.394 92.6045 99.9111 94.6952C98.7331 96.3315 96.7761 97.2496 95.0616 98.211C93.114 99.4193 91.0821 100.486 88.9816 101.403C86.0609 102.521 82.7868 102.672 79.6465 103.49C77.0131 104.197 75.446 105.396 73.584 105.238C73.069 105.198 72.5747 105.018 72.1548 104.717C71.7349 104.417 71.4054 104.007 71.2021 103.532C70.8729 102.694 70.6631 101.813 70.5789 100.917C70.449 100.016 70.1549 98.4398 71.5054 98.3873C72.6142 98.344 73.4191 99.3229 74.4329 99.6345C74.8532 99.7585 75.297 99.7808 75.7277 99.6995C76.1583 99.6183 76.5635 99.4358 76.9097 99.1671C78.4122 97.9617 77.8719 95.8231 80.2264 94.5599C80.8306 94.8601 81.524 94.928 82.175 94.7507H82.2008C82.1706 93.7492 82.3804 92.7549 82.8128 91.851C83.2451 90.9471 83.8874 90.1597 84.6861 89.5546C84.8859 89.398 85.1109 89.2339 85.3442 89.0781C84.6584 88.4432 83.7698 88.0718 82.8362 88.03C82.2311 88.0658 81.6447 88.2526 81.1304 88.5733C80.6161 88.8941 80.1903 89.3386 79.892 89.8662C79.2505 91.0024 79.1175 93.4139 79.9353 94.3175C77.8757 95.4134 78.0474 97.0535 77.1233 98.3531C76.2918 99.5136 74.9238 99.5045 73.7975 98.838C73.0102 98.382 72.2129 97.7991 71.2515 97.9632C70.9798 98.0071 70.7265 98.1285 70.5222 98.313C70.318 98.4974 70.1714 98.737 70.1001 99.0029C70.0095 98.8966 69.8941 98.8143 69.7641 98.7633C69.6341 98.7122 69.4935 98.694 69.3548 98.7102C69.2161 98.7265 69.0835 98.7767 68.9688 98.8563C68.8541 98.936 68.7608 99.0427 68.6972 99.1671C68.5682 99.3726 68.5013 99.611 68.5044 99.8536C68.5075 100.096 68.5805 100.333 68.7147 100.535C68.8903 100.757 69.1197 100.93 69.3812 101.037C69.704 101.192 69.986 101.421 70.2043 101.705C70.3563 101.857 70.4535 103.858 71.7022 104.935C72.0688 105.231 72.491 105.45 72.9439 105.58C73.3967 105.709 73.871 105.747 74.3387 105.69ZM69.388 100.434C69.0772 100.233 68.8431 99.6284 69.2239 99.3426C69.6396 99.031 69.8645 99.4376 70.0029 99.8708C70.0116 100.184 70.0369 100.496 70.0789 100.806C69.8531 100.667 69.5849 100.562 69.388 100.434Z" fill="#191919"/>
<path d="M85.6406 94.7181C86.5237 94.7941 87.4334 94.9347 88.3424 95.0038C88.358 93.5657 88.8552 92.1743 89.7545 91.0519C89.0921 90.9924 88.4416 90.8388 87.8226 90.5959C87.1742 91.0765 86.6417 91.6962 86.2641 92.4095C85.8866 93.1229 85.6735 93.9117 85.6406 94.7181ZM35.3848 43.0161C35.1424 42.9993 34.4067 43.3451 34.3284 43.0069C34.2676 42.747 33.8785 42.8595 33.9302 43.1194C33.9675 43.2529 34.0481 43.3702 34.1595 43.4528C34.2708 43.5353 34.4065 43.5785 34.545 43.5754C34.738 43.5653 34.9281 43.5245 35.1082 43.4546C35.2389 43.4207 35.3757 43.4179 35.5077 43.4464C35.6397 43.4749 35.7631 43.534 35.8682 43.6187C35.8972 43.6353 35.9308 43.642 35.9639 43.6376C35.997 43.6332 36.0277 43.618 36.0513 43.5944C36.0749 43.5708 36.0901 43.54 36.0945 43.5069C36.0989 43.4738 36.0923 43.4402 36.0757 43.4113C36.0011 43.2944 35.8992 43.1975 35.7789 43.1286C35.6586 43.0598 35.5234 43.0212 35.3848 43.0161ZM37.1952 45.3371C37.0526 45.4444 36.8863 45.5159 36.7103 45.5453C36.6621 45.5579 36.6209 45.5892 36.5957 45.6321C36.5706 45.6751 36.5635 45.7263 36.5761 45.7745C36.5887 45.8226 36.62 45.8638 36.6629 45.889C36.7059 45.9142 36.7571 45.9212 36.8053 45.9086C37.1693 45.8136 37.8358 45.5195 37.775 45.0513C37.6772 44.7537 37.5499 44.4665 37.395 44.1941C37.3261 43.8645 37.2334 43.5404 37.1176 43.2243C37.1043 43.2016 37.0846 43.1834 37.0609 43.172C37.0372 43.1606 37.0107 43.1565 36.9847 43.1603C36.9586 43.164 36.9343 43.1754 36.9148 43.1931C36.8953 43.2107 36.8815 43.2337 36.8752 43.2593C36.844 43.8514 36.9824 44.4401 37.2742 44.9563C37.3426 45.138 37.376 45.1805 37.1952 45.3371ZM35.0558 45.7361C35.0355 45.7042 35.0056 45.6795 34.9704 45.6657C34.9352 45.6518 34.8965 45.6495 34.8599 45.659C34.8233 45.6686 34.7907 45.6895 34.7667 45.7188C34.7428 45.7481 34.7288 45.7842 34.7267 45.822C34.6575 46.5584 34.2768 48.1521 35.264 48.4721C36.176 48.767 36.7536 47.4841 36.8836 46.81C36.8847 46.7423 36.8618 46.6763 36.819 46.6239C36.7761 46.5714 36.7161 46.5358 36.6495 46.5235C36.3404 46.5281 36.0347 46.4591 35.7576 46.3222C35.4804 46.1853 35.2399 45.9844 35.0558 45.7361ZM36.5112 46.7925C36.4066 47.2182 36.188 47.6073 35.8788 47.9181C35.8158 47.9677 35.742 48.0019 35.6634 48.0179C35.5848 48.0339 35.5035 48.0313 35.4261 48.0103C35.3486 47.9892 35.2772 47.9503 35.2175 47.8967C35.1579 47.843 35.1116 47.7762 35.0824 47.7015C34.9848 47.2189 34.9789 46.7224 35.0649 46.2377C35.2564 46.4225 35.4832 46.5668 35.7316 46.6621C35.9801 46.7574 36.2452 46.8018 36.5112 46.7925ZM57.5122 57.8361C57.2725 58.4539 57.1737 59.1174 57.2231 59.7782C57.2726 60.4391 57.469 61.0806 57.798 61.6558C57.8172 61.6857 57.8463 61.7079 57.8801 61.7186C57.914 61.7292 57.9506 61.7277 57.9834 61.7143C58.0163 61.7008 58.0434 61.6763 58.0601 61.6449C58.0767 61.6135 58.0819 61.5773 58.0746 61.5426C57.8003 60.2605 57.399 60.0553 57.8238 57.9318C57.8365 57.8905 57.8323 57.8458 57.8121 57.8076C57.7918 57.7694 57.7572 57.7408 57.7159 57.7281C57.6746 57.7154 57.6299 57.7197 57.5917 57.7399C57.5535 57.7601 57.5249 57.7947 57.5122 57.8361ZM37.0736 97.0391C35.1173 96.7192 32.3046 97.2603 30.4144 97.8706C29.7304 89.4536 29.4135 80.8633 31.445 72.669C31.7049 71.6301 32.0424 70.5995 32.2764 69.553C32.3106 69.3881 32.0682 69.2589 31.9907 69.4314C30.7602 72.178 29.9653 77.2525 29.6696 80.2568C29.2035 86.2231 29.3107 92.2204 29.9896 98.1662C30.0071 98.2962 30.1287 98.4345 30.2754 98.3828C33.3496 97.2763 35.3316 97.4936 37.0219 97.4039C37.2301 97.394 37.2985 97.0756 37.0736 97.0391ZM20.8012 85.5639C20.1438 85.3123 19.8314 84.7499 19.3572 84.2719C19.3224 84.2379 19.2766 84.2174 19.228 84.2144C19.1795 84.2113 19.1314 84.2258 19.0927 84.2551C19.0539 84.2845 19.027 84.3269 19.0168 84.3744C19.0066 84.422 19.0139 84.4717 19.0372 84.5143C19.226 84.9017 19.4976 85.2428 19.8327 85.5136C20.1679 85.7844 20.5584 85.9783 20.9768 86.0815C21.2954 86.159 21.6304 86.1338 21.9337 86.0093C22.2371 85.8848 22.4933 85.6674 22.6655 85.3883C23.7168 85.8351 24.7924 86.2226 25.8871 86.5489C26.3287 86.6879 26.9002 86.8696 27.2551 86.4538C27.3131 86.3821 27.3554 86.299 27.3795 86.21C27.4037 86.121 27.409 86.0279 27.3952 85.9367C27.3814 85.8455 27.3488 85.7582 27.2994 85.6802C27.25 85.6023 27.185 85.5355 27.1084 85.4841C26.3028 84.7674 25.6371 84.851 22.1456 81.5868C22.1348 81.576 22.122 81.5675 22.1078 81.5617C22.0937 81.5559 22.0786 81.5529 22.0633 81.5529C22.048 81.553 22.0329 81.556 22.0188 81.5619C22.0047 81.5678 21.9919 81.5764 21.9811 81.5872C21.9703 81.598 21.9618 81.6109 21.956 81.625C21.9501 81.6391 21.9472 81.6543 21.9472 81.6695C21.9472 81.6848 21.9503 81.6999 21.9562 81.714C21.962 81.7281 21.9706 81.741 21.9815 81.7517C23.1789 83.1755 24.5888 84.4059 26.1615 85.3997C26.2314 85.4476 26.4837 85.5692 26.6722 85.6901C26.7037 85.7103 26.7306 85.7367 26.7514 85.7678C26.7722 85.7989 26.7863 85.8339 26.793 85.8707C26.7996 85.9075 26.7986 85.9453 26.7899 85.9817C26.7813 86.0181 26.7653 86.0523 26.7429 86.0822C26.5149 86.3794 26.2018 86.1962 25.9069 86.1187C22.0712 84.9278 21.8789 84.4155 20.7108 83.7019C20.5375 83.5985 20.3817 83.8319 20.5033 83.9709C21.0219 84.5207 21.6462 84.9602 22.3387 85.2629C22.1391 85.4567 21.8876 85.5883 21.6146 85.6418C21.3417 85.6952 21.0591 85.6681 20.8012 85.5639Z" fill="#191919"/>
<path d="M45.7087 64.9869C44.8324 60.4094 42.582 59.388 38.1391 59.904C33.1892 60.4771 28.497 62.8886 24.6354 66.1756C24.1607 66.1923 23.6887 66.2557 23.2264 66.3648C20.6066 66.9188 17.2984 68.1888 15.5101 70.1648C15.2502 69.4798 14.9816 68.8044 14.7045 68.1386C16.6417 66.3329 17.2809 66.5791 18.0994 65.8776C18.1213 65.8549 18.1362 65.8262 18.1421 65.7952C18.1481 65.7642 18.145 65.7321 18.1331 65.7028C18.1212 65.6735 18.101 65.6483 18.0751 65.6302C18.0491 65.6122 18.0185 65.602 17.9869 65.601C17.2845 65.7535 16.6266 66.0655 16.0641 66.513C15.5142 66.8687 15.0008 67.2778 14.5312 67.7343C13.8989 66.2356 13.2149 64.7632 12.4792 63.3172C12.3485 63.0664 11.9768 63.2914 12.0992 63.5452C14.0703 67.4162 15.6569 71.4712 16.8363 75.652C16.9714 76.0046 17.0702 76.37 17.1312 76.7426C17.1654 77.3324 16.6113 77.549 16.2131 77.8514C15.1166 78.7012 14.1483 79.7046 13.338 80.8306C10.6142 77.8241 7.30893 73.5027 5.59361 69.8198C4.55347 67.7673 4.13508 65.4558 4.38977 63.169C5.12013 58.4312 9.95373 56.253 14.2371 53.593C14.2722 53.5698 14.2972 53.5341 14.3068 53.4932C14.3165 53.4522 14.3101 53.4091 14.289 53.3727C14.268 53.3363 14.2338 53.3093 14.1935 53.2973C14.1531 53.2853 14.1098 53.2891 14.0722 53.308C11.843 54.3796 9.73041 55.6785 7.76797 57.184C6.02011 58.3912 4.7295 60.1517 4.10401 62.1818C2.88345 66.8041 5.55941 71.2919 8.06209 74.9634C9.57253 77.1543 11.2269 79.2423 13.0142 81.2137C13.5481 81.7233 13.9716 82.3371 14.2584 83.0172C14.8664 84.2248 15.8247 86.6819 17.1821 87.0801C17.3443 87.1342 17.5173 87.1473 17.6859 87.1184C17.8544 87.0895 18.0131 87.0195 18.148 86.9144C18.2962 86.7686 18.4066 86.5889 18.4695 86.3908C18.7927 86.6241 19.1852 86.7413 19.5834 86.7234C19.9816 86.7055 20.362 86.5534 20.6629 86.292C20.6878 86.2674 20.7029 86.2345 20.7054 86.1995C20.7079 86.1645 20.6976 86.1298 20.6763 86.1019C20.6551 86.074 20.6245 86.0548 20.5901 86.0478C20.5558 86.0408 20.52 86.0466 20.4896 86.064C20.2278 86.2167 19.9287 86.2935 19.6258 86.2859C19.3228 86.2782 19.028 86.1864 18.7743 86.0207C18.3095 85.7033 17.8977 85.3147 17.5537 84.8693C17.4321 84.7112 17.2497 84.9726 17.3113 85.1117C17.5121 85.5391 17.8187 85.9083 18.202 86.1841C18.2362 86.2099 18.1959 86.2601 18.1602 86.3194C17.6548 87.1683 16.6964 86.276 16.3066 85.7912C15.3102 84.5562 14.7987 82.5916 13.6656 81.1552C14.1492 80.451 14.7003 79.7955 15.311 79.1982C15.96 78.5681 17.211 77.6956 17.2588 77.6022C18.525 79.1982 21.8417 78.0072 22.9756 79.759C23.1879 80.0927 23.299 80.4808 23.2955 80.8762C23.2955 81.2745 23.0873 81.5952 23.0614 81.976C23.0617 82.0053 23.0696 82.0341 23.0844 82.0595C23.0991 82.0849 23.1202 82.106 23.1456 82.1208C23.1709 82.1356 23.1997 82.1435 23.229 82.1438C23.2584 82.1442 23.2873 82.1369 23.313 82.1226C23.8496 81.751 23.845 80.8071 23.693 80.2439C23.5968 79.8809 23.4188 79.5447 23.1728 79.261C22.9267 78.9772 22.6191 78.7535 22.2733 78.6069C21.5266 78.3291 20.7395 78.1751 19.9432 78.1509C19.0509 78.158 18.1851 77.8477 17.5005 77.2754C17.6076 76.8766 17.5809 76.4537 17.4245 76.0715C16.9137 74.1925 16.3182 72.3375 15.64 70.5121C16.2724 70.0265 16.8697 69.5074 17.54 69.0742C19.5629 67.8391 21.8034 67.0022 24.1406 66.6088C21.9134 68.5828 19.9697 70.8551 18.3646 73.3614C18.2696 73.508 18.4946 73.6821 18.6078 73.543C20.808 70.5722 23.3513 67.8717 26.185 65.4976C29.1358 63.1386 32.5837 61.4803 36.2687 60.6481C38.11 60.1474 40.0417 60.0764 41.9148 60.4406C43.8201 60.9604 44.6948 62.6317 45.1189 64.4245C46.0978 68.4951 45.3705 72.8423 44.5824 76.8779C43.6467 81.3871 42.4084 85.8282 40.8758 90.171C40.7892 90.4135 41.1616 90.5085 41.2558 90.2752C42.8484 86.1933 44.0574 81.972 44.8674 77.666C45.7163 73.5521 46.512 69.1798 45.7087 64.9869ZM77.8726 94.1808C76.1978 94.7271 74.6343 95.5691 73.2564 96.6668C68.1378 91.5108 64.0933 85.3904 61.3571 78.6601C61.2446 78.391 60.803 78.5035 60.9155 78.7809C63.7003 85.6506 67.8282 91.8954 73.0573 97.1494C73.0936 97.1872 73.1419 97.2113 73.194 97.2176C73.246 97.224 73.2987 97.2122 73.343 97.1843C74.7991 96.1321 76.3468 95.2131 77.9676 94.4384C77.9964 94.4222 78.0185 94.3963 78.0299 94.3652C78.0413 94.3342 78.0413 94.3002 78.0298 94.2692C78.0184 94.2382 77.9963 94.2123 77.9675 94.1961C77.9387 94.1799 77.9051 94.1745 77.8726 94.1808ZM61.0888 76.7304C57.4667 78.3333 53.688 79.5558 49.8134 80.3784C47.3298 80.8952 46.7788 80.8268 46.037 81.1491C46.0154 81.1622 45.9982 81.1814 45.9875 81.2043C45.9768 81.2272 45.9731 81.2527 45.9768 81.2777C45.9806 81.3027 45.9916 81.326 46.0085 81.3448C46.0254 81.3635 46.0475 81.3769 46.072 81.3832C46.6782 81.4276 47.2877 81.3807 47.88 81.2441C51.8549 80.5989 55.7428 79.5006 59.4677 77.9708C60.0916 77.7473 60.6969 77.4752 61.278 77.1568C61.3239 77.1255 61.3573 77.0792 61.3724 77.0258C61.3876 76.9725 61.3836 76.9155 61.3611 76.8648C61.3386 76.8141 61.299 76.7729 61.2493 76.7483C61.1995 76.7238 61.1427 76.7174 61.0888 76.7304Z" fill="#191919"/>
<path d="M27.8852 87.5908C26.7535 87.7116 26.2496 88.344 23.6246 88.344C22.1312 88.2972 20.656 88.0016 19.2599 87.4692C19.2227 87.4609 19.1838 87.466 19.15 87.4837C19.1162 87.5013 19.0897 87.5303 19.0751 87.5655C19.0606 87.6007 19.059 87.64 19.0705 87.6763C19.0821 87.7126 19.1061 87.7437 19.1383 87.7641C21.6296 89.4361 26.7619 88.917 28.0242 87.9108C28.048 87.8831 28.0635 87.8494 28.0689 87.8134C28.0743 87.7774 28.0695 87.7406 28.055 87.7072C28.0405 87.6738 28.0169 87.6451 27.9868 87.6246C27.9568 87.604 27.9215 87.5923 27.8852 87.5908Z" fill="#191919"/>
<path d="M37.3426 42.3754C37.4178 42.3754 37.4912 42.3531 37.5537 42.3113C37.6162 42.2696 37.6649 42.2102 37.6937 42.1408C37.7225 42.0713 37.73 41.9949 37.7153 41.9212C37.7007 41.8475 37.6645 41.7798 37.6113 41.7267C37.5582 41.6735 37.4905 41.6373 37.4168 41.6227C37.343 41.608 37.2666 41.6155 37.1972 41.6443C37.1278 41.673 37.0684 41.7217 37.0267 41.7842C36.9849 41.8467 36.9626 41.9202 36.9626 41.9954C36.9638 42.0958 37.0042 42.1917 37.0752 42.2627C37.1462 42.3338 37.2422 42.3742 37.3426 42.3754ZM38.1908 100.988C38.6171 102.594 40.9534 103.127 42.348 103.327C43.229 103.471 44.128 103.468 45.008 103.317C45.6319 103.205 46.9657 102.919 47.1732 102.218C47.1836 102.179 47.1849 102.139 47.1772 102.1C47.1694 102.06 47.1528 102.023 47.1286 101.992C47.1044 101.96 47.0732 101.934 47.0375 101.916C47.0017 101.898 46.9624 101.889 46.9224 101.889C46.5842 101.845 46.3243 102.088 46.0302 102.227C44.1658 102.898 42.118 102.848 40.2884 102.088C39.6067 101.792 38.9877 101.368 38.4644 100.841C38.4405 100.814 38.4083 100.796 38.3728 100.789C38.3374 100.783 38.3008 100.789 38.2691 100.806C38.2374 100.823 38.2124 100.85 38.1982 100.883C38.184 100.916 38.1814 100.953 38.1908 100.988ZM79.7772 99.1952C80.6611 100.651 83.103 100.442 84.5234 100.226C85.383 100.106 86.217 99.846 86.9919 99.4551C87.5285 99.1694 88.7581 98.4937 88.7239 97.7923C88.7229 97.7526 88.713 97.7136 88.695 97.6782C88.6769 97.6429 88.6511 97.612 88.6196 97.5879C88.588 97.5639 88.5514 97.5472 88.5125 97.5391C88.4736 97.5311 88.4334 97.5319 88.3948 97.5415C88.0741 97.5848 87.9009 97.8789 87.6668 98.0871C86.3269 99.3031 84.0948 99.7591 82.2974 99.6543C81.4884 99.5909 80.7013 99.3608 79.9855 98.9786C79.8555 98.9186 79.6822 99.0569 79.7772 99.1952Z" fill="#EF233C"/>
<path d="M138.122 76.4104C137.862 72.4379 137.853 68.4692 137.939 64.5027C137.937 64.4344 137.916 64.368 137.877 64.3118C137.838 64.2556 137.783 64.212 137.72 64.1862C137.656 64.1605 137.587 64.1538 137.52 64.167C137.453 64.1801 137.391 64.2126 137.342 64.2603C134.027 66.9098 130.893 69.7789 127.963 72.8483C127.907 72.9098 127.874 72.9891 127.87 73.0723C127.866 73.1555 127.892 73.2374 127.943 73.3035C127.994 73.3697 128.066 73.4159 128.147 73.4341C128.228 73.4523 128.314 73.4413 128.388 73.4031C129.524 73.904 130.673 74.3746 131.834 74.8144C128.115 82.3886 123.655 90.6042 118.948 98.3357C117.13 95.8588 116.562 95.1817 115.925 94.4125C115.531 93.9537 115.112 93.517 114.67 93.1046C114.705 92.9928 114.705 92.8729 114.67 92.7609C114.636 92.649 114.568 92.5503 114.476 92.4779C114.383 92.4055 114.271 92.3629 114.154 92.3558C114.037 92.3487 113.921 92.3774 113.821 92.4381C112.204 93.404 107.919 96.4197 98.2847 102.45C93.1167 105.689 76.9546 115.163 74.2178 116.938C74.1205 116.615 71.9484 110.659 70.5888 107.377C70.2663 106.451 69.8648 105.554 69.3888 104.697C69.1904 104.393 68.7633 103.955 68.3111 104.036C66.9279 104.282 11.647 121.09 11.0831 121.277C10.0816 121.577 9.1057 121.956 8.16469 122.411C8.09881 122.452 8.0497 122.515 8.02626 122.588C8.00282 122.662 8.00662 122.742 8.03696 122.813C8.0673 122.884 8.12217 122.942 8.19162 122.977C8.26107 123.011 8.3405 123.019 8.41549 123C8.78181 122.916 8.89049 122.907 9.37689 122.818C10.3033 122.633 67.9843 105.357 68.4395 105.186C68.694 106.046 69.0066 106.888 69.3751 107.706C69.8166 108.846 72.3626 115.63 72.5618 116.193C72.8924 117.113 73.0892 118.403 73.9738 118.159C75.2871 118.29 107.849 98.2262 114.01 93.8068C115.302 95.7418 115.043 95.2409 118.435 99.9377C118.498 100.039 118.585 100.123 118.689 100.181C118.793 100.239 118.91 100.27 119.029 100.27C119.148 100.27 119.265 100.239 119.368 100.181C119.472 100.123 119.559 100.039 119.622 99.9377C124.847 91.4121 129.035 83.6357 133.15 75.3137C134.639 75.8513 136.152 76.3248 137.688 76.7342C137.738 76.7478 137.791 76.7498 137.842 76.74C137.893 76.7302 137.942 76.7089 137.983 76.6778C138.025 76.6466 138.059 76.6063 138.083 76.56C138.107 76.5137 138.12 76.4625 138.122 76.4104Z" fill="#EF233C"/>
<path d="M111.69 81.1475C111.236 80.9365 110.735 80.8469 110.236 80.8876C110.279 80.4027 110.382 79.9353 110.452 79.4497C110.478 79.2597 110.21 79.0864 110.106 79.303C109.867 79.8055 109.729 80.3497 109.698 80.9051C109.206 80.9067 108.72 81.0222 108.279 81.2425C108.248 81.2618 108.224 81.2905 108.211 81.3243C108.198 81.3581 108.196 81.3953 108.206 81.4303C108.215 81.4653 108.236 81.4962 108.265 81.5185C108.293 81.5408 108.328 81.5533 108.365 81.5541C108.802 81.551 109.239 81.5223 109.673 81.4682C109.615 82.027 109.705 82.5911 109.932 83.1045C109.957 83.1439 109.993 83.1744 110.036 83.1916C110.078 83.2088 110.126 83.2118 110.17 83.2001C110.215 83.1885 110.255 83.1627 110.283 83.1268C110.312 83.0908 110.329 83.0465 110.331 83.0004C110.334 82.4848 110.3 81.9696 110.227 81.4591C110.7 81.5226 111.179 81.5429 111.656 81.5199C111.812 81.485 111.821 81.2243 111.69 81.1475ZM103.178 57.2972C102.698 57.1527 102.182 57.1834 101.722 57.3838C101.455 56.7919 101.006 56.3005 100.441 55.9809C100.402 55.9594 100.356 55.9527 100.312 55.9619C100.268 55.971 100.229 55.9955 100.202 56.0309C100.174 56.0663 100.16 56.1103 100.162 56.155C100.164 56.1997 100.182 56.2423 100.213 56.275C100.57 56.6776 100.889 57.1127 101.165 57.5746C100.742 57.7127 100.354 57.9432 100.03 58.2495C100.004 58.2761 99.9871 58.3107 99.9823 58.3479C99.9775 58.3851 99.985 58.4228 100.004 58.4553C100.023 58.4878 100.051 58.5132 100.086 58.5277C100.121 58.5421 100.159 58.5448 100.195 58.5352C100.603 58.406 100.983 58.2062 101.373 58.0504C101.466 58.3082 101.53 58.5756 101.563 58.8476C101.567 59.1039 101.611 59.358 101.693 59.6008C101.714 59.6343 101.742 59.662 101.776 59.6812C101.811 59.7004 101.849 59.7105 101.888 59.7105C101.927 59.7105 101.966 59.7004 102 59.6812C102.034 59.662 102.063 59.6343 102.083 59.6008C102.262 59.0291 102.209 58.41 101.936 57.8771C102.365 57.8308 102.783 57.7139 103.175 57.5313C103.255 57.4705 103.273 57.3322 103.178 57.2972ZM130.475 48.4554C130.841 47.921 131.029 47.2844 131.011 46.6367C131.01 46.5928 130.993 46.5507 130.964 46.5179C130.935 46.485 130.895 46.4636 130.852 46.4573C130.808 46.451 130.764 46.4603 130.727 46.4836C130.689 46.5068 130.661 46.5424 130.648 46.5842C130.486 47.0989 130.278 47.5976 130.025 48.0738C129.69 47.7806 129.293 47.5675 128.863 47.4506C128.711 47.4157 128.559 47.6148 128.699 47.7364C129.011 48.0222 129.383 48.2388 129.73 48.4964C129.144 49.2055 128.799 49.2123 128.569 49.5703C128.549 49.6047 128.538 49.644 128.538 49.6841C128.538 49.7241 128.549 49.7635 128.569 49.7979C128.589 49.8324 128.618 49.8608 128.654 49.8801C128.689 49.8995 128.728 49.909 128.768 49.9077C129.059 49.8396 129.332 49.714 129.573 49.5385C129.814 49.3629 130.017 49.1409 130.171 48.8855C130.43 49.2317 130.747 49.5307 131.107 49.7694C131.183 49.8036 131.314 49.7603 131.298 49.6569C131.182 49.1682 130.888 48.74 130.475 48.4554ZM129.184 31.9831C127.898 30.3066 125.867 28.8139 123.659 29.0039C123.628 29.0046 123.598 29.0143 123.573 29.0317C123.547 29.049 123.527 29.0735 123.515 29.1019C123.503 29.1304 123.5 29.1617 123.505 29.1921C123.511 29.2224 123.525 29.2505 123.546 29.273C124.492 30.3244 125.019 31.6862 125.028 33.1003C124.795 32.932 124.531 32.813 124.251 32.7506C123.971 32.6881 123.681 32.6835 123.399 32.737C123.252 32.7629 123.269 32.9529 123.365 33.0228C123.714 33.3889 123.967 33.8364 124.099 34.3248C124.232 34.8132 124.241 35.327 124.125 35.8196C123.978 36.7552 123.64 37.5775 123.891 38.5305C124.086 39.3123 124.56 39.9962 125.223 40.4537C125.886 40.9113 126.694 41.1111 127.494 41.0157C130.664 40.622 132.068 35.7428 129.184 31.9831ZM127.824 38.5191C127.659 38.597 127.476 38.6321 127.293 38.621C127.11 38.6099 126.933 38.5531 126.778 38.4557C126.623 38.3583 126.495 38.2236 126.405 38.0637C126.316 37.9039 126.268 37.7242 126.266 37.541C126.166 37.2182 126.187 36.8702 126.323 36.5614C126.46 36.2525 126.704 36.0036 127.01 35.8606C127.356 35.7758 127.721 35.8265 128.031 36.0023C128.34 36.1781 128.57 36.4656 128.675 36.8059C128.779 37.1463 128.749 37.5135 128.591 37.8324C128.432 38.1513 128.158 38.3975 127.824 38.5206V38.5191ZM121.6 54.9154C119.792 51.9612 116.785 49.1477 113.156 48.9919C113.129 48.9924 113.102 48.9999 113.079 49.0136C113.055 49.0273 113.036 49.0468 113.022 49.0703C113.008 49.0938 113 49.1204 113 49.1477C112.999 49.1749 113.005 49.2019 113.018 49.226C114.468 51.3613 115.05 53.9684 114.646 56.5174C114.3 56.1313 113.873 55.8269 113.395 55.6262C112.918 55.4255 112.401 55.3335 111.883 55.3569C111.853 55.3579 111.823 55.3678 111.798 55.3852C111.772 55.4027 111.753 55.427 111.741 55.4553C111.729 55.4837 111.726 55.5148 111.731 55.5451C111.736 55.5753 111.75 55.6034 111.771 55.626L111.797 55.6518C111.798 55.6731 111.804 55.6938 111.814 55.7126C112.3 56.4041 112.617 57.2001 112.738 58.0364C112.86 58.8726 112.784 59.7258 112.516 60.5272C112.091 62.1126 111.216 63.4912 111.381 65.1951C111.502 66.6174 112.157 67.9411 113.215 68.8999C114.272 69.8587 115.654 70.3815 117.081 70.3631C122.532 70.2795 125.997 62.1027 121.6 54.9154ZM117.344 67.032C116.079 67.4272 114.888 66.8945 114.706 64.7201C114.573 63.1294 115.737 61.7212 117.228 62.1361C117.719 62.2937 118.157 62.5858 118.492 62.9793C118.826 63.3729 119.043 63.8522 119.119 64.3629C119.182 64.9451 119.038 65.5307 118.714 66.0182C118.39 66.5056 117.905 66.8643 117.344 67.032ZM148.09 47.3549C147.71 44.5497 146.4 41.4489 143.751 40.1068C143.723 40.0922 143.692 40.0859 143.661 40.0886C143.63 40.0913 143.6 40.103 143.575 40.1221C143.551 40.1413 143.532 40.1672 143.522 40.1967C143.511 40.2261 143.51 40.258 143.517 40.2884C143.87 42.369 143.425 44.5063 142.27 46.2726C142.133 45.8665 141.908 45.4954 141.612 45.1856C141.315 44.8758 140.955 44.6349 140.555 44.4798C140.534 44.4737 140.512 44.4722 140.491 44.4753C140.469 44.4785 140.448 44.4862 140.43 44.498C140.412 44.5099 140.396 44.5255 140.385 44.5438C140.373 44.5622 140.365 44.5829 140.362 44.6044C140.337 44.7694 141.1 46.588 139.057 48.8604C138.13 49.891 137.099 50.6533 136.71 52.0388C136.384 53.1576 136.484 54.3575 136.991 55.4067C137.498 56.4559 138.376 57.28 139.455 57.7198C143.609 59.4222 149.047 54.3872 148.09 47.3549ZM143.119 54.416C142.345 56.9377 138.179 55.7742 139.724 53.1955C139.898 52.7227 140.242 52.3319 140.688 52.0995C141.135 51.8672 141.653 51.81 142.14 51.9392C142.568 52.1708 142.902 52.5462 143.081 52.9992C143.26 53.4523 143.273 53.954 143.119 54.416Z" fill="#EF233C"/>
<path d="M40.5643 37.3267C40.4364 36.8488 40.179 36.4154 39.8204 36.0746C39.4617 35.7338 39.0159 35.4988 38.532 35.3955C38.2204 35.3697 37.9689 35.4822 37.6656 35.3781C37.3844 35.2457 37.1151 35.0893 36.8608 34.9107C35.5232 34.1887 33.5236 34.1803 31.5605 35.5187C29.2311 37.1147 27.8707 39.7275 25.7663 41.5812C21.1995 45.6092 14.4575 47.2888 11.4684 51.4361C11.4485 51.4704 11.4368 51.5089 11.434 51.5485C11.4313 51.588 11.4378 51.6277 11.4528 51.6644C11.4679 51.7012 11.4911 51.7339 11.5209 51.7602C11.5506 51.7865 11.5859 51.8056 11.6242 51.8161C13.9111 52.2318 15.5131 54.128 16.4312 56.1549C17.5651 58.6629 17.7909 61.481 18.7257 64.0589C18.7372 64.0955 18.7568 64.129 18.783 64.157C18.8091 64.1851 18.8412 64.207 18.8768 64.2211C18.9125 64.2352 18.9508 64.2412 18.9891 64.2387C19.0274 64.2361 19.0646 64.2251 19.0981 64.2064C25.3042 61.0972 30.2701 56.1405 30.9974 49.2678C31.2315 47.0638 31.119 44.5558 32.6603 42.7896C34.0716 41.17 36.2718 40.5643 37.7697 39.0489C38.2112 39.9458 38.864 40.722 39.672 41.3106C39.6371 41.9863 39.6029 42.6611 39.5504 43.3284C39.2738 43.3284 38.4036 42.7356 37.7842 43.5883C37.715 43.6833 37.8533 43.8163 37.9483 43.7525C38.7 43.2623 38.9242 43.6507 39.5162 43.735C39.4726 44.2852 39.412 44.8339 39.3346 45.3804C39.1613 46.5409 38.9189 47.8489 37.905 48.5853C37.4407 48.8952 36.9111 49.0939 36.3575 49.1658C35.8039 49.2378 35.2412 49.1811 34.713 49.0003C33.4659 48.6112 32.6686 47.7364 31.7163 46.9133C31.5514 46.775 31.2489 46.9658 31.3956 47.1649C31.9102 47.8574 32.5642 48.4344 33.3154 48.8587C34.0667 49.2829 34.8985 49.545 35.7573 49.6281C35.7113 49.8471 35.6912 50.0708 35.6972 50.2946C35.6794 50.4417 35.6909 50.5909 35.7309 50.7336C35.7709 50.8763 35.8388 51.0096 35.9305 51.126C35.952 51.1465 35.9784 51.1612 36.0071 51.1685C36.0359 51.1759 36.066 51.1758 36.0947 51.1681C36.1234 51.1605 36.1497 51.1456 36.1709 51.125C36.1922 51.1043 36.2078 51.0785 36.2163 51.05C36.2585 50.7986 36.2437 50.541 36.173 50.2961C36.1563 50.0681 36.1821 49.8545 36.1821 49.6296C36.7914 49.6066 37.3846 49.4276 37.905 49.1097C38.4038 48.7518 38.8192 48.2901 39.1228 47.7564C39.4264 47.2228 39.6109 46.6297 39.6637 46.0181C39.9458 44.5376 40.0479 43.0284 39.9677 41.5234C39.9851 41.5409 40.011 41.5493 40.0285 41.5667C40.0614 41.5849 40.098 41.5955 40.1356 41.5977C40.1731 41.5999 40.2107 41.5938 40.2456 41.5796C40.2804 41.5655 40.3117 41.5438 40.3371 41.5161C40.3625 41.4883 40.3815 41.4553 40.3925 41.4193C40.9349 40.119 40.9958 38.6679 40.5643 37.3267ZM34.8399 35.6813C34.2547 35.7751 33.6841 35.9439 33.1421 36.1837C32.5881 36.5036 32.3365 37.0235 31.8691 37.4133C31.7475 37.5083 31.5142 37.4567 31.5317 37.275C31.6441 36.0446 33.7227 34.9107 34.8399 35.3522C34.8753 35.3628 34.9064 35.3846 34.9284 35.4142C34.9505 35.4438 34.9624 35.4798 34.9624 35.5168C34.9624 35.5537 34.9505 35.5897 34.9284 35.6193C34.9064 35.649 34.8753 35.6707 34.8399 35.6813ZM57.2957 62.58C57.2265 62.5883 57.1482 62.5883 57.0791 62.5975C53.8194 62.9091 49.5794 64.6548 46.6671 66.1482C46.5151 66.2242 46.6237 66.5031 46.7887 66.4339C49.9921 65.1784 54.1295 63.1659 57.5708 63.0649C57.4739 62.9063 57.3821 62.7445 57.2957 62.58ZM79.4915 89.6861C78.7315 87.378 77.8894 85.079 76.9835 82.8188C76.846 82.9126 76.6908 82.9775 76.5275 83.0095C77.4395 85.2523 78.2511 87.53 79.0301 89.8161C79.1282 90.111 79.5887 89.9841 79.4915 89.6861ZM75.4558 78.4366C75.4425 78.415 75.4225 78.3983 75.3988 78.3891C75.3751 78.3799 75.3491 78.3786 75.3247 78.3855C75.3002 78.3923 75.2786 78.407 75.2632 78.4272C75.2478 78.4474 75.2394 78.472 75.2393 78.4974C75.2567 79.0773 75.4673 79.6754 75.5433 80.2553C75.7226 81.7505 75.6906 83.2636 75.4483 84.7499C75.435 85.0488 75.3573 85.3413 75.2203 85.6072C74.7741 86.1696 74.5971 85.1512 74.4663 84.395C74.3194 82.6303 74.0005 80.8841 73.514 79.1814C73.5019 79.1484 73.4777 79.1212 73.4463 79.1052C73.4149 79.0893 73.3786 79.0857 73.3448 79.0953C73.3109 79.1049 73.2819 79.1269 73.2635 79.157C73.2452 79.187 73.2388 79.2229 73.2458 79.2574C73.3172 79.6306 73.3978 80.0045 73.4616 80.3777C71.877 80.5905 71.3025 79.3137 71.4788 77.707C71.6087 76.5207 72.0153 75.3252 71.4788 74.1738C71.418 74.0522 71.2189 74.1388 71.2508 74.2688C71.7357 75.8108 70.8708 77.3171 71.1117 78.8759C71.1774 79.461 71.4623 79.9994 71.9089 80.383C72.1326 80.5632 72.3947 80.6896 72.675 80.7525C72.9553 80.8153 73.2462 80.8129 73.5255 80.7455C73.7132 81.7616 73.8895 82.7717 74.0043 83.8129C74.0651 84.3494 74.1692 86.5405 75.1823 86.1164C75.693 85.9082 75.7142 85.2044 75.7713 84.7484C75.9886 83.3058 76.006 81.8402 75.8229 80.3929C75.8113 79.7248 75.6872 79.0634 75.4558 78.4366Z" fill="#191919"/>
<path d="M76.9979 77.7701C76.9766 77.7515 76.9505 77.7392 76.9226 77.7346C76.8946 77.7301 76.866 77.7334 76.8398 77.7442C76.8137 77.755 76.7911 77.7729 76.7746 77.7959C76.7581 77.8189 76.7483 77.846 76.7463 77.8742C76.8008 78.2437 76.8938 78.6064 77.0237 78.9565C77.1176 79.3661 77.1725 79.7837 77.1879 80.2036C77.2204 80.5974 77.1262 80.9912 76.919 81.3277C76.7119 81.6642 76.4027 81.9256 76.0365 82.074C76.013 82.0887 75.9948 82.1106 75.9845 82.1363C75.9742 82.162 75.9722 82.1904 75.979 82.2173C75.9857 82.2441 76.0008 82.2682 76.0221 82.286C76.0433 82.3038 76.0696 82.3145 76.0973 82.3164C76.481 82.2503 76.8326 82.0605 77.0984 81.7759C77.3642 81.4913 77.5296 81.1276 77.5694 80.7402C77.6225 80.2107 77.5933 79.6761 77.4828 79.1556C77.4475 78.6588 77.2801 78.1805 76.9979 77.7701ZM78.2618 77.0686C78.2432 77.0496 78.2193 77.0366 78.1933 77.0314C78.1672 77.0261 78.1402 77.0287 78.1156 77.0389C78.0911 77.0491 78.0702 77.0665 78.0556 77.0887C78.041 77.1109 78.0334 77.137 78.0338 77.1636C78.0117 77.5436 78.3636 77.9685 78.5536 78.9739C78.6836 79.6496 78.6745 80.8093 77.7997 80.9743C77.6614 81.0001 77.6963 81.2167 77.8347 81.2167C78.6228 81.2258 78.926 80.3245 78.9519 79.6754C78.9587 79.2093 78.8944 78.745 78.7611 78.2983C78.7119 77.85 78.539 77.4243 78.2618 77.0686Z" fill="#191919"/>
<path d="M78.2876 74.6001C77.2555 73.3545 75.7158 72.669 74.8068 71.2919C74.7308 71.1794 74.5119 71.2485 74.5727 71.3876C75.1443 72.764 76.573 73.4487 77.5861 74.4535C78.1821 75.0511 78.6345 75.7764 78.9091 76.5745C79.1837 77.3726 79.2735 78.2227 79.1715 79.0606C79.1456 79.3205 79.5439 79.3114 79.5781 79.0606C79.6782 78.2684 79.6154 77.4641 79.3935 76.6971C79.1716 75.93 78.7953 75.2165 78.2876 74.6001Z" fill="#191919"/>
<path d="M74.8843 70.7727C71.7904 64.8881 66.7523 58.0807 61.7553 54.2807C57.553 51.1204 52.5792 49.1466 47.3533 48.5655C40.0452 47.6049 39.5253 50.179 36.312 51.3365C35.5103 51.6255 34.6445 51.6883 33.8094 51.5181C33.4065 51.4786 33.0157 51.3586 32.6601 51.1653C32.3045 50.972 31.9913 50.7092 31.7391 50.3926C31.7116 50.3502 31.6688 50.32 31.6195 50.3084C31.5703 50.2968 31.5185 50.3047 31.475 50.3304C31.4314 50.3561 31.3995 50.3976 31.3858 50.4463C31.3722 50.495 31.3779 50.5471 31.4017 50.5917C31.9732 51.6314 33.3777 51.9863 34.4759 52.0555C37.2164 52.2265 39.121 49.8583 41.4474 49.1675C44.0587 48.3915 47.7766 48.9896 50.4108 49.5475C53.8035 50.2801 57.0325 51.6306 59.9366 53.5314C65.6222 57.2554 71.1337 64.6327 74.3767 70.756C73.4283 71.1916 72.6023 71.8547 71.972 72.6864C71.9568 72.7075 71.945 72.7308 71.937 72.7556C71.6597 73.0596 71.3914 73.3704 71.1315 73.682C67.5207 71.0329 64.0957 68.1393 60.8806 65.0218C59.9167 63.9928 59.0278 62.8961 58.2206 61.7401C58.1514 61.6535 57.9873 61.7485 58.0298 61.8526C59.3218 65.0887 68.2655 72.029 71.0813 74.1069C71.1166 74.1292 71.1584 74.1388 71.1998 74.1341C71.2413 74.1294 71.2799 74.1106 71.3093 74.081C71.5867 73.7253 71.8808 73.397 72.1757 73.0588C72.1978 73.0407 72.2179 73.0203 72.2357 72.998C72.2449 72.9897 72.2532 72.9722 72.2623 72.9638C72.8186 72.2363 73.5399 71.6515 74.3668 71.2576C74.3668 71.2598 74.3677 71.262 74.3692 71.2635C74.3708 71.2651 74.3729 71.266 74.3751 71.266L74.8684 71.0327C74.8925 70.9941 74.9066 70.9501 74.9094 70.9047C74.9122 70.8593 74.9035 70.814 74.8843 70.7727Z" fill="#191919"/>
<path d="M88.9139 85.4947C88.5453 84.091 87.6554 81.3558 87.1994 79.987C87.0483 79.3847 86.8245 78.8031 86.5329 78.255C86.4569 78.1334 86.238 78.179 86.2555 78.331C86.2965 78.8759 86.4348 79.2331 87.3293 81.9159C87.7359 83.1456 88.1433 84.3752 88.6213 85.5791C88.6325 85.6179 88.6587 85.6506 88.694 85.6702C88.7294 85.6897 88.771 85.6944 88.8098 85.6832C88.8486 85.672 88.8814 85.6459 88.9009 85.6105C88.9204 85.5752 88.9251 85.5335 88.9139 85.4947ZM94.6641 85.12C95.1593 83.3803 95.4986 81.6 95.6779 79.8C95.7903 79.2179 95.8078 78.6215 95.7296 78.0338C95.7038 77.8947 95.513 77.9213 95.4788 78.0338C95.2166 78.7718 95.4028 80.0455 94.3616 85.0395C94.3555 85.078 94.3638 85.1174 94.385 85.15C94.4062 85.1827 94.4388 85.2064 94.4765 85.2164C94.5141 85.2264 94.5542 85.2221 94.5888 85.2043C94.6235 85.1865 94.6503 85.1565 94.6641 85.12ZM100.303 86.7077C102.042 85.1007 103.663 83.3697 105.152 81.5283C105.273 81.3641 105.013 81.165 104.875 81.3117C104.07 82.1697 103.316 83.0703 102.528 83.936C101.74 84.8016 100.926 85.6505 100.12 86.52C100.101 86.5452 100.091 86.5765 100.093 86.6082C100.095 86.6399 100.108 86.6699 100.13 86.6927C100.152 86.7155 100.182 86.7296 100.214 86.7323C100.245 86.7351 100.277 86.7263 100.303 86.7077ZM54.0049 93.9558C53.235 92.4358 51.9627 90.1946 51.4064 89.1838C51.1564 88.659 50.8507 88.1626 50.4944 87.7033C50.4721 87.6821 50.4436 87.6688 50.413 87.6653C50.3825 87.6619 50.3516 87.6685 50.3252 87.6841C50.2987 87.6997 50.2781 87.7236 50.2664 87.752C50.2547 87.7804 50.2526 87.8119 50.2603 87.8416C50.4622 88.3856 50.7237 88.9056 51.0401 89.392C51.3342 89.9118 53.1096 93.0727 53.7335 94.1116C53.7542 94.1476 53.7883 94.1739 53.8284 94.1847C53.8684 94.1955 53.9111 94.19 53.9471 94.1694C53.9831 94.1487 54.0094 94.1146 54.0202 94.0745C54.031 94.0345 54.0255 93.9918 54.0049 93.9558ZM57.5556 93.6875C57.8421 92.0087 57.9971 90.0692 58.1446 88.3531C58.2321 87.7745 58.2467 87.1873 58.1879 86.6051C58.1613 86.4531 57.9455 86.4751 57.9021 86.6051C57.7785 87.1536 57.7204 87.7149 57.7289 88.2771C57.6855 88.8744 57.4081 92.4685 57.3299 93.6639C57.304 93.7916 57.532 93.8266 57.5556 93.6875ZM61.158 95.2721C61.8351 94.519 62.4568 93.7225 63.0808 92.9252C63.7401 92.2088 64.3342 91.4351 64.8561 90.6133C64.871 90.5821 64.8747 90.5467 64.8667 90.5131C64.8587 90.4794 64.8395 90.4495 64.8123 90.4282C64.785 90.407 64.7513 90.3957 64.7167 90.3962C64.6821 90.3966 64.6487 90.4089 64.6221 90.4309C64.2616 90.7846 63.9339 91.1702 63.6432 91.5831C62.7707 92.6988 61.7865 93.9087 60.933 95.0988C60.8464 95.228 61.0554 95.3861 61.158 95.2721Z" fill="#EF233C"/>
</svg>
